<svg width="30" height="31" viewBox="0 0 30 31" fill="none" xmlns="http://www.w3.org/2000/svg">
<path d="M13.1396 15.4279L19.1856 21.4738C19.3022 21.5865 19.3953 21.7213 19.4593 21.8703C19.5233 22.0193 19.557 22.1796 19.5584 22.3417C19.5598 22.5039 19.5289 22.6648 19.4675 22.8149C19.4061 22.965 19.3154 23.1013 19.2007 23.216C19.086 23.3307 18.9496 23.4214 18.7995 23.4828C18.6494 23.5442 18.4886 23.5751 18.3264 23.5737C18.1642 23.5723 18.004 23.5386 17.855 23.4746C17.7059 23.4106 17.5712 23.3175 17.4585 23.2009L10.549 16.2914C10.32 16.0624 10.1914 15.7517 10.1914 15.4279C10.1914 15.104 10.32 14.7934 10.549 14.5643L17.4585 7.65487C17.6888 7.43239 17.9974 7.30928 18.3176 7.31206C18.6379 7.31484 18.9442 7.44329 19.1707 7.66975C19.3971 7.89621 19.5256 8.20255 19.5284 8.5228C19.5312 8.84305 19.408 9.15158 19.1856 9.38194L13.1396 15.4279Z" fill="#697077"/>
</svg>
