<svg width="31" height="31" viewBox="0 0 31 31" fill="none" xmlns="http://www.w3.org/2000/svg">
<path d="M17.047 15.5143L11.0011 9.46836C10.7786 9.238 10.6555 8.92947 10.6582 8.60923C10.661 8.28898 10.7895 7.98264 11.0159 7.75618C11.2424 7.52972 11.5487 7.40127 11.869 7.39848C12.1892 7.3957 12.4978 7.51881 12.7281 7.7413L19.6376 14.6508C19.8666 14.8798 19.9952 15.1904 19.9952 15.5143C19.9952 15.8382 19.8666 16.1488 19.6376 16.3778L12.7281 23.2873C12.4978 23.5098 12.1892 23.6329 11.869 23.6301C11.5487 23.6273 11.2424 23.4989 11.0159 23.2724C10.7895 23.046 10.661 22.7396 10.6582 22.4194C10.6555 22.0991 10.7786 21.7906 11.0011 21.5602L17.047 15.5143Z" fill="#201C1A"/>
</svg>
