<svg width="18" height="18" viewBox="0 0 18 18" fill="none" xmlns="http://www.w3.org/2000/svg">
<path d="M3.53445 14.25C3.17552 14.25 2.87171 14.1275 2.62303 13.8825C2.37434 13.6375 2.25 13.3382 2.25 12.9846V5.01542C2.25 4.66181 2.37434 4.3625 2.62303 4.1175C2.87171 3.8725 3.17552 3.75 3.53445 3.75H14.4655C14.8245 3.75 15.1283 3.8725 15.377 4.1175C15.6257 4.3625 15.75 4.66181 15.75 5.01542V12.9846C15.75 13.3382 15.6257 13.6375 15.377 13.8825C15.1283 14.1275 14.8245 14.25 14.4655 14.25H3.53445ZM14.6842 5.80958L9.34567 9.1764C9.29108 9.20685 9.23459 9.23082 9.17621 9.24832C9.11795 9.26583 9.05921 9.27458 9 9.27458C8.94079 9.27458 8.88205 9.26583 8.82379 9.24832C8.76541 9.23082 8.70892 9.20685 8.65433 9.1764L3.31579 5.80958V12.9846C3.31579 13.0475 3.33628 13.0991 3.37725 13.1395C3.41822 13.1798 3.47063 13.2 3.53445 13.2H14.4655C14.5294 13.2 14.5818 13.1798 14.6228 13.1395C14.6637 13.0991 14.6842 13.0475 14.6842 12.9846V5.80958ZM9 8.3L14.575 4.8H3.42503L9 8.3ZM3.31579 5.9711V5.17083V5.19165V5.16942V5.9711Z" fill="#7CC249"/>
</svg>
